<svg width="97" height="95" viewBox="0 0 97 95" fill="none" xmlns="http://www.w3.org/2000/svg">
<path d="M87.3676 54.8308C98.8531 44.7791 101.331 29.3652 87.1172 20.1348C74.182 12.7696 57.8309 13.8655 44.3166 18.562C46.0042 11.5261 42.8959 2.74088 35.3353 0.734642C24.0285 -1.81453 13.9998 7.68708 8.92777 16.8058C1.80634 28.6318 3.47767 43.7731 11.0673 55.1743C12.8645 57.4914 15.6903 62.5993 18.5527 63.1319C23.3431 63.7569 24.0139 56.2058 19.2025 55.8174C-8.41142 20.9722 47.1592 -12.6217 35.4315 22.9018C35.1235 24.5231 34.0582 25.7432 33.6417 27.3165C32.6204 31.0483 37.6914 33.9591 40.3027 31.1015C43.29 26.446 49.4046 25.3007 54.4892 24.0795C65.5934 22.0359 87.5216 21.6086 88.8077 36.8395C87.4614 47.8983 72.2752 56.5302 63.4178 61.7068C50.6969 68.8314 37.0013 73.9749 23.372 79.107C19.8777 80.4192 16.3779 81.7043 12.8775 82.999C8.98678 85.1297 -2.03899 85.8175 0.358708 92.1717C3.15236 97.8899 11.0601 91.7853 15.392 90.8736C21.8625 88.4711 28.3462 86.0892 34.7859 83.6039C53.3715 76.2863 72.5574 68.576 87.3654 54.8282L87.3676 54.8308Z" fill="#255B4B" fill-opacity="0.1"/>
<path d="M25.9695 70.1788C25.9695 70.1788 25.9669 70.181 25.9621 70.1806C29.3431 64.3901 18.7239 62.7618 20.3817 69.3463C21.1478 71.7114 24.6187 72.1949 25.9695 70.1788Z" fill="#255B4B" fill-opacity="0.1"/>
</svg>
